<svg id="eeXZRqMTaz91" xmlns="http://www.w3.org/2000/svg" xmlns:xlink="http://www.w3.org/1999/xlink" viewBox="0 0 600 159" shape-rendering="geometricPrecision" text-rendering="geometricPrecision" project-id="992acdea1c7943bdaa361b0ece20b6d9" export-id="a06cd5b6d547480385d39fe50c0a64b3" cached="false"><g transform="translate(-700 0)"><g transform="matrix(.96429 0 0 0.96429 10 2.84)"><rect width="560" height="159.33" rx="0" ry="0" transform="translate(746.667-.165)" fill="none"/><path d="M800.327,124.47q-4.5,0-9.64-1.71-5.14-1.72-8.87-5.73l2.94-11.56q2.74,4.6,7.05,7.3q4.31,2.69,9.21,2.69q4.7,0,7.05-2.3t2.35-5.63q0-3.82-2.5-5.58t-4.46-2.45l-7.93-3.04q-2.15-.88-5.19-2.59-3.03-1.71-5.28-4.95-2.26-3.23-2.26-8.42q0-4.7,2.26-8.61q2.25-3.92,6.36-6.22t9.69-2.3q4.41,0,9.21,1.57q4.8,1.56,8.13,5.28l-2.94,11.56q-2.35-4.31-6.37-6.86-4.01-2.54-8.32-2.54-4.01,0-6.31,2.25-2.31,2.25-2.31,5.19q0,2.35,1.57,4.21t4.7,3.03l7.93,3.04q2.16.78,5.34,2.55q3.18,1.76,5.63,5.09t2.45,9.01q0,7.93-5.54,12.82-5.53,4.9-13.95,4.9m77.85-1.18h-10.57v-49.93h-13.32v-8.82h13.61v-19.58h9.99v19.58h14.59v8.82h-14.3v49.93Zm77.46.79q-8.03,0-14.68-4.07-6.66-4.06-10.63-10.91-3.96-6.86-3.96-15.18t3.96-15.18q3.97-6.85,10.63-10.92q6.65-4.06,14.68-4.06q6.07,0,11.41,2.25t9.25,6.27v-7.74h9.79v58.75h-9.79v-7.73q-3.91,3.91-9.25,6.22-5.34,2.3-11.41,2.3m1.37-9.6q5.58,0,10.14-2.79q4.55-2.79,7.24-7.44q2.7-4.65,2.7-10.33t-2.7-10.33q-2.69-4.65-7.24-7.44-4.56-2.79-10.14-2.79t-10.13,2.79-7.25,7.44q-2.69,4.65-2.69,10.33t2.69,10.33q2.7,4.65,7.25,7.44t10.13,2.79m90.99,8.81h-10.58v-49.93h-13.32v-8.82h13.61v-19.58h9.99v19.58h14.59v8.82h-14.29v49.93Zm62.86,0h-10.58v-58.75h10.58v58.75Zm-5.29-69.32q-2.94,0-5-2.06-2.05-2.05-2.05-4.99q0-3.04,2.05-5.04q2.06-2.01,5-2.01q3.03,0,5.04,2.01q2.01,2,2.01,5.04q0,2.94-2.01,4.99-2.01,2.06-5.04,2.06m67.18,69.32h-10.58v-49.93h-13.31v-8.82h13.61v-16.84q0-9.59,5.68-14.59q5.67-4.99,13.51-4.99q2.94,0,6.02.68q3.08.69,5.83,2.35l-2.55,10.29q-4.11-4.51-9.6-4.51-3.33,0-6.12,2.25-2.79,2.26-2.79,8.72v16.64h14.59v8.82h-14.29v49.93Zm61.3,29.38h-11.46l19.1-37.99-24.87-50.14h11.94L1241.297,90q1.66,3.43,3.23,6.76q1.56,3.33,3.13,8.03q1.67-4.7,3.18-8.08q1.52-3.38,3.28-6.71l12.73-25.46h11.26l-44.06,88.13Z" fill="#30d464"/></g><path d="M720,0h560v159h-560v-159Z" fill="rgba(0,0,0,0)" stroke="rgba(0,0,0,0)"/></g></svg>
