<svg id="eRHPESZm1lp1" xmlns="http://www.w3.org/2000/svg" xmlns:xlink="http://www.w3.org/1999/xlink" viewBox="0 0 600 159" shape-rendering="geometricPrecision" text-rendering="geometricPrecision" project-id="c927fd7803f34a90938ad74df5cab3c7" export-id="9286e6b0ddf3473fa6ed1d294bbd640d" cached="false"><g transform="translate(-450 0)"><g transform="matrix(.96429 0 0 0.96429 10 2.84)"><path d="M513.087,120.005q-4.5,0-9.64-1.71t-8.86-5.73l2.93-11.55q2.75,4.6,7.05,7.29q4.31,2.69,9.21,2.69q4.7,0,7.05-2.3t2.35-5.63q0-3.82-2.5-5.58t-4.45-2.45l-7.94-3.03q-2.15-.88-5.18-2.6-3.04-1.71-5.29-4.94t-2.25-8.42q0-4.7,2.25-8.62t6.36-6.22t9.7-2.3q4.4,0,9.2,1.57t8.13,5.29l-2.94,11.55q-2.35-4.31-6.36-6.85-4.02-2.55-8.33-2.55-4.01,0-6.31,2.25-2.3,2.26-2.3,5.19q0,2.35,1.56,4.21q1.57,1.86,4.7,3.04l7.93,3.03q2.16.79,5.34,2.55t5.63,5.09t2.45,9.01q0,7.93-5.53,12.83-5.54,4.89-13.96,4.89m77.85-1.17h-10.57v-49.94h-13.32v-8.81h13.61v-19.59h9.99v19.59h14.59v8.81h-14.3v49.94Zm77.46.78q-8.03,0-14.68-4.06-6.66-4.07-10.63-10.92-3.96-6.85-3.96-15.18q0-8.32,3.96-15.17q3.97-6.86,10.63-10.92q6.65-4.07,14.68-4.07q6.07,0,11.41,2.26q5.34,2.25,9.25,6.26v-7.73h9.8v58.75h-9.8v-7.74q-3.91,3.92-9.25,6.22t-11.41,2.3m1.37-9.59q5.59,0,10.14-2.8q4.55-2.79,7.25-7.44q2.69-4.65,2.69-10.33t-2.69-10.33q-2.7-4.65-7.25-7.44t-10.14-2.79q-5.58,0-10.13,2.79t-7.25,7.44q-2.69,4.65-2.69,10.33t2.69,10.33q2.7,4.65,7.25,7.44q4.55,2.8,10.13,2.8m90.97,8.81h-10.58v-49.94h-13.31v-8.81h13.61v-19.59h9.98v19.59h14.59v8.81h-14.29v49.94Zm62.87,0h-10.58v-58.75h10.58v58.75Zm-5.29-69.33q-2.94,0-4.99-2.05-2.06-2.06-2.06-5q0-3.03,2.06-5.04q2.05-2.01,4.99-2.01q3.04,0,5.04,2.01q2.01,2.01,2.01,5.04q0,2.94-2.01,5-2,2.05-5.04,2.05m67.19,69.33h-10.58v-49.94h-13.31v-8.81h13.61v-16.84q0-9.6,5.68-14.59q5.68-5,13.51-5q2.94,0,6.02.69q3.09.68,5.83,2.35l-2.55,10.28q-4.11-4.5-9.59-4.5-3.33,0-6.12,2.25t-2.79,8.71v16.65h14.58v8.81h-14.29v49.94Zm62.86,0h-10.58v-94h10.58v94Zm53.47,29.37h-11.46l19.1-37.99-24.87-50.13h11.94l12.54,25.46q1.66,3.42,3.23,6.75q1.56,3.33,3.13,8.03q1.66-4.7,3.18-8.08q1.52-3.37,3.28-6.7l12.73-25.46h11.26l-44.06,88.12Z" fill="#30d464"/><rect width="560" height="159.33" rx="0" ry="0" transform="translate(487.407-.165)" fill="none"/></g><path d="M470,0h560v159h-560v-159Z" fill="rgba(0,0,0,0)" stroke="rgba(0,0,0,0)"/></g></svg>
